<svg xmlns="http://www.w3.org/2000/svg" viewBox="0 0 512 512" role="img" aria-labelledby="title">
  <title id="title">BDB OS monogram</title>
  <defs><linearGradient id="g" x1="0" y1="0" x2="1" y2="1"><stop stop-color="#f0ce77"/><stop offset="1" stop-color="#b7872e"/></linearGradient></defs>
  <rect width="512" height="512" rx="116" fill="#11110f"/>
  <rect x="30" y="30" width="452" height="452" rx="92" fill="none" stroke="url(#g)" stroke-width="10"/>
  <path d="M92 120h126c72 0 112 28 112 82 0 35-19 60-54 72 45 10 69 41 69 82 0 65-49 98-134 98H92V120Zm116 129c37 0 56-12 56-39 0-26-19-37-56-37h-43v76h43Zm7 151c44 0 66-15 66-47 0-31-22-45-66-45h-50v92h50Z" fill="url(#g)"/>
  <path d="M330 120h49c63 0 101 52 101 167s-38 167-101 167h-49c39-27 59-83 59-167s-20-140-59-167Z" fill="url(#g)" opacity=".72"/>
</svg>
